# xmcd
#
# Track frame offsets:
#	150
#	15590
#	27629
#	39568
#	48472
#	61435
#	76410
#	89472
#	102366
#	114033
#	129939
#	141232
#	156836
#	167228
#	179125
#	193434
#	210437
#	224366
#	238152
#	253629
#	266668
#	275515
#	288575
#	305350
#	315320
#	327472
#	340956
#
# Disc length: 4683 seconds
#
# Revision: 0
# Processed by: cddbd v1.5.1PL0 Copyright (c) Steve Scherf et al.
# Submitted via: dBpowerAMP V4.0
#
DISCID=9c12491b
DTITLE=La Original Banda Limon - Purititos Hits!!!
DYEAR=1900
DGENRE=Country
TTITLE0=La abeja reyna
TTITLE1=Por un maldito desaire
TTITLE2=Angel de la noche
TTITLE3=Por querer volver
TTITLE4=Me estoy enamorando
TTITLE5=Me esta pegando fuerte
TTITLE6=Bendito destino
TTITLE7=Me sales debiendo
TTITLE8=Llego su padre
TTITLE9=Que poca manera
TTITLE10=Mi media naranja
TTITLE11=Por un maldito desaire
TTITLE12=Evitamen la pena
TTITLE13=De mil maneras
TTITLE14=Hacia mis brazos
TTITLE15=Entregame tu amor
TTITLE16=Perdon por que
TTITLE17=Que suerte la mia
TTITLE18=Que me vas a dar
TTITLE19=Violeta
TTITLE20=Ya pa que
TTITLE21=Asi fue
TTITLE22=Secretos de mi memoria
TTITLE23=Te llegara mi olvido
TTITLE24=Juro que no volvere
TTITLE25=La pura verdad
TTITLE26=Me esta enamorando
EXTD=
EXTT0=
EXTT1=
EXTT2=
EXTT3=
EXTT4=
EXTT5=
EXTT6=
EXTT7=
EXTT8=
EXTT9=
EXTT10=
EXTT11=
EXTT12=
EXTT13=
EXTT14=
EXTT15=
EXTT16=
EXTT17=
EXTT18=
EXTT19=
EXTT20=
EXTT21=
EXTT22=
EXTT23=
EXTT24=
EXTT25=
EXTT26=
PLAYORDER=
